<?xml version="1.0" encoding="UTF-8" standalone="no"?>
<!-- Uploaded to: SVG Repo, www.svgrepo.com, Generator: SVG Repo Mixer Tools -->

<svg
   fill="#000000"
   height="800"
   width="800"
   version="1.1"
   id="Capa_1"
   viewBox="0 0 317.001 317.001"
   xml:space="preserve"
   sodipodi:docname="blank-file.svg"
   inkscape:export-filename="file_preview.svg"
   inkscape:export-xdpi="96"
   inkscape:export-ydpi="96"
   xmlns:inkscape="http://www.inkscape.org/namespaces/inkscape"
   xmlns:sodipodi="http://sodipodi.sourceforge.net/DTD/sodipodi-0.dtd"
   xmlns="http://www.w3.org/2000/svg"
   xmlns:svg="http://www.w3.org/2000/svg"><defs
   id="defs1" /><sodipodi:namedview
   id="namedview1"
   pagecolor="#ffffff"
   bordercolor="#000000"
   borderopacity="0.25"
   inkscape:showpageshadow="2"
   inkscape:pageopacity="0.0"
   inkscape:pagecheckerboard="0"
   inkscape:deskcolor="#d1d1d1"
   showgrid="false" />
<path
   d="M 270.825,70.55 212.17,3.66 C 210.13,1.334 207.187,0 204.093,0 H 55.941 C 49.076,0 43.51,5.566 43.51,12.431 V 304.57 c 0,6.866 5.566,12.431 12.431,12.431 h 205.118 c 6.866,0 12.432,-5.566 12.432,-12.432 V 77.633 c 0,-2.606 -0.947,-5.123 -2.666,-7.083 z M 55.941,305.073 V 12.432 H 199.94 v 63.601 c 0,3.431 2.78,6.216 6.216,6.216 h 54.903 l 0.006,222.824 z"
   id="path1"
   style="fill:#808080" />
<path
   style="fill:#ffffff;stroke-width:0.389915"
   d="M 56.14778,158.69546 V 12.477284 h 71.74438 71.74439 v 32.280337 32.280334 l 0.87731,1.736615 c 0.48251,0.955136 1.4735,2.132815 2.20219,2.617065 l 1.32489,0.880459 h 28.40614 28.40614 V 193.59286 304.91363 H 158.5005 56.14778 Z"
   id="path2" /><path
   style="fill:#ffffff;stroke-width:0.389915"
   d="M 56.14778,158.69546 V 12.477284 h 71.74438 71.74439 v 32.280337 32.280334 l 0.87731,1.736615 c 0.48251,0.955136 1.4735,2.132815 2.20219,2.617065 l 1.32489,0.880459 h 28.40614 28.40614 V 193.59286 304.91363 H 158.5005 56.14778 Z"
   id="path3" /></svg>
